<?xml version="1.0" encoding="utf-8"?>
<!-- Generator: Adobe Illustrator 25.3.0, SVG Export Plug-In . SVG Version: 6.00 Build 0)  -->
<svg version="1.1" id="Layer_1" xmlns="http://www.w3.org/2000/svg" xmlns:xlink="http://www.w3.org/1999/xlink" x="0px" y="0px"
	 viewBox="0 0 1080 1080" style="enable-background:new 0 0 1080 1080;" xml:space="preserve">
<style type="text/css">
	.st0{fill:#C1BF97;}
	.st1{fill:#FBFCC5;}
</style>
<g>
	<path class="st0" d="M1005,1080H75c-8.3,0-15-6.7-15-15V55.3c0-8.3,6.7-15,15-15h930c8.3,0,15,6.7,15,15V1065
		C1020,1073.3,1013.3,1080,1005,1080z"/>
	<path class="st1" d="M1005,977.3H75c-8.3,0-15-6.7-15-15v-907c0-8.3,6.7-15,15-15h930c8.3,0,15,6.7,15,15v907
		C1020,970.6,1013.3,977.3,1005,977.3z"/>
	<g>
		<path class="st0" d="M236,80.7h68c1.1,0,2-0.9,2-2V2c0-1.1-0.9-2-2-2h-68c-1.1,0-2,0.9-2,2v76.7C234,79.8,234.9,80.7,236,80.7z"/>
		<path class="st0" d="M416,80.7h68c1.1,0,2-0.9,2-2V2c0-1.1-0.9-2-2-2h-68c-1.1,0-2,0.9-2,2v76.7C414,79.8,414.9,80.7,416,80.7z"/>
		<path class="st0" d="M596,80.7h68c1.1,0,2-0.9,2-2V2c0-1.1-0.9-2-2-2h-68c-1.1,0-2,0.9-2,2v76.7C594,79.8,594.9,80.7,596,80.7z"/>
		<path class="st0" d="M776,80.7h68c1.1,0,2-0.9,2-2V2c0-1.1-0.9-2-2-2h-68c-1.1,0-2,0.9-2,2v76.7C774,79.8,774.9,80.7,776,80.7z"/>
	</g>
</g>
</svg>
